<?xml version="1.0" encoding="UTF-8"?>
<svg width="1754px" height="500px" viewBox="0 0 1754 500" version="1.1" xmlns="http://www.w3.org/2000/svg" xmlns:xlink="http://www.w3.org/1999/xlink">
    <title>logos</title>
    <g id="Page-1" stroke="none" stroke-width="1" fill="none" fill-rule="evenodd">
        <g id="Effect" fill="#000000">
            <path d="M468.274573,380.165217 C475.667979,375.999235 478.191833,366.767855 473.926025,359.547808 C469.665167,352.332704 460.218036,349.856836 452.829579,354.022817 L251.12914,467.808969 L50.1660621,354.447817 C42.787502,350.281835 33.3403717,352.747819 29.0696155,359.972808 C24.8087569,367.192854 27.3375592,376.419292 34.721068,380.585274 L242.815269,497.969095 C244.621557,498.992058 246.615896,499.644382 248.679517,499.891475 C250.73819,500.133626 252.831504,499.970545 254.825843,499.402232 C256.71131,499.115604 258.527495,498.487989 260.18532,497.553979 L468.274573,380.165217 Z" id="Path"></path>
            <path d="M488.791157,259.397128 C489.848121,253.030748 486.85091,246.397661 480.757241,242.989746 L260.169424,119.563954 C258.43263,118.59097 256.53208,117.939021 254.567021,117.632802 C252.453093,117.035183 250.239921,116.857378 248.051559,117.114207 C245.86816,117.371035 243.754233,118.057557 241.838796,119.129322 L21.2360927,242.560053 C14.8198768,246.15565 11.8375521,253.32215 13.4155542,259.98487 C12.7208363,265.477046 14.8794241,271.221112 21.3105268,274.831526 L241.898344,398.859877 C243.818742,399.936581 245.93267,400.628042 248.121031,400.88487 C250.30443,401.141698 252.522565,400.968833 254.641455,400.366274 C256.631325,400.069934 258.556686,399.408107 260.31333,398.425244 L480.911072,274.387016 C487.391797,270.742028 489.54046,264.928817 488.791157,259.397128 Z M443.247437,258.740241 L250.612091,150.951346 L58.0859145,258.680972 L250.721261,366.993402 L443.247437,258.740241 Z" id="Shape"></path>
            <path d="M491.425365,165.397565 C499.624611,160.753829 502.43677,150.464184 497.697121,142.412065 C492.967357,134.369869 482.494661,131.61141 474.295414,136.255146 L250.583005,263.114465 L27.7008991,136.726465 C19.5016527,132.072807 9.02895645,134.831266 4.30413455,142.883384 C-0.4355142,150.92558 2.37170216,161.225148 10.5709485,165.868884 L241.365648,296.741859 C243.372215,297.877987 245.586358,298.60233 247.874634,298.8752 C250.157969,299.15303 252.480841,298.964502 254.694984,298.334423 C256.780627,298.016902 258.792136,297.322326 260.630665,296.280463 L491.425365,165.397565 Z" id="Path"></path>
            <polygon id="Path" fill-rule="nonzero" points="44 151.20741 249.5 25 455 151.197487 249.5 269"></polygon>
            <path d="M489.373593,133.480865 C497.587292,138.138264 500.433917,148.459261 495.734021,156.543709 C491.019298,164.618196 480.547078,167.397692 472.328437,162.745273 L248.596555,35.9693658 L25.6702289,162.287005 C17.4565295,166.939423 6.98430981,164.159927 2.26958703,156.085441 C-2.43525164,148.000993 0.411373438,137.679996 8.62013082,133.027578 L239.40927,2.2617485 C241.415746,1.12105922 243.629787,0.393807536 245.913018,0.119842862 C248.201191,-0.149140636 250.514073,0.0351628715 252.728115,0.66777221 C254.788953,0.991548643 256.77566,1.68393209 258.589395,2.7150355 L489.373593,133.480865 Z" id="Path"></path>
            <path d="M1715.86833,392 C1670.1975,392 1645.37084,370.966903 1645.37084,321.453348 L1645.37084,214.532627 L1613,214.532627 L1613,164.141453 L1645.37084,164.141453 L1645.37084,118.133414 L1705.22834,112 L1705.22834,164.141453 L1754,164.141453 L1754,214.532627 L1705.22834,214.532627 L1705.22834,318.384162 C1705.22834,332.847515 1712.32167,339.417258 1723.84833,339.417258 L1748.68,339.417258 L1748.68,392 L1715.86833,392 Z" id="Path" fill-rule="nonzero"></path>
            <path d="M1510.89861,397 C1445.34857,397 1393,343.821464 1393,278.006738 C1393,212.18708 1444.03141,159.447507 1513.98028,159.008544 C1555.77166,158.574514 1589.64514,174.702674 1609,201.291941 L1563.25216,238.342318 C1552.69496,222.648189 1535.09467,212.62111 1514.86005,212.62111 C1477.02513,212.62111 1452.3867,242.697414 1452.3867,278.006738 C1452.3867,313.311131 1478.34726,343.387435 1516.17721,343.387435 C1539.0561,343.387435 1554.01213,332.053334 1565.89146,316.364137 L1609,353.414513 C1587.44324,380.871841 1555.77166,397 1510.89861,397 Z" id="Path" fill-rule="nonzero"></path>
            <path d="M1262.59645,397 C1192.21638,397 1145,343.819555 1145,278.436512 C1145,213.053468 1194.3994,159 1262.59645,159 C1330.78856,159 1378,213.053468 1378,278.436512 C1378,284.976789 1377.56537,291.951112 1376.25161,299.35948 L1206.20349,299.35948 C1212.76242,325.949703 1232.8689,344.692579 1262.59645,344.692579 C1287.94809,344.692579 1307.61993,331.616956 1318.11027,314.181149 L1364.01289,348.613786 C1345.6548,376.950055 1307.61993,397 1262.59645,397 Z M1206.20349,255.333451 L1318.54983,255.333451 C1311.99091,230.050297 1290.57067,209.566307 1261.72225,209.566307 C1233.74309,209.566307 1212.76242,228.309183 1206.20349,255.333451 Z" id="Shape" fill-rule="nonzero"></path>
            <path d="M1038.08563,148.713892 C1038.08563,102.688533 1067.96668,72 1114.11399,72 L1138.72191,72 L1138.72191,122.415104 L1123.34444,122.415104 C1105.76239,122.415104 1097.41575,131.616207 1097.41575,149.591841 L1097.41575,164.055678 L1144,164.055678 L1144,214.465821 L1097.41575,214.465821 L1097.41575,392 L1038.08563,392 L1038.08563,214.465821 L1006,214.465821 L1006,164.055678 L1038.08563,164.055678 L1038.08563,148.713892 Z" id="Path" fill-rule="nonzero"></path>
            <path d="M891.085633,148.713892 C891.085633,102.688533 920.966682,72 967.113986,72 L991.721908,72 L991.721908,122.415104 L976.344439,122.415104 C958.762386,122.415104 950.410787,131.616207 950.410787,149.591841 L950.410787,164.055678 L997,164.055678 L997,214.465821 L950.410787,214.465821 L950.410787,392 L891.085633,392 L891.085633,214.465821 L859,214.465821 L859,164.055678 L891.085633,164.055678 L891.085633,148.713892 Z" id="Path" fill-rule="nonzero"></path>
            <polygon id="Path" fill-rule="nonzero" points="658 392 658 85 837.126309 85 837.126309 140.259206 719.163275 140.259206 719.163275 209.116097 834.939615 209.116097 834.939615 262.623485 719.163275 262.623485 719.163275 336.740794 838 336.740794 838 392"></polygon>
        </g>
    </g>
</svg>