<?xml version="1.0" encoding="UTF-8"?>
<svg width="500px" height="500px" viewBox="0 0 500 500" version="1.1" xmlns="http://www.w3.org/2000/svg" xmlns:xlink="http://www.w3.org/1999/xlink">
    <title>logos</title>
    <g id="Page-1" stroke="none" stroke-width="1" fill="none" fill-rule="evenodd">
        <g id="Group" fill="#000000" fill-rule="nonzero">
            <path d="M347.048301,250.233939 L208.36356,180.887656 C207.011553,180.701475 205.679278,180.391198 204.383371,179.960701 L203.935599,179.785331 L203.935599,343.981697 C203.935599,344.407595 204.134609,344.833493 204.184361,345.259392 L263.588695,270.752222 L347.048301,250.208887 L347.048301,250.233939 Z" id="Path"></path>
            <path d="M236.049474,51.4085483 L375.802723,134.531704 C391.722874,144.35467 404.586977,158.413301 412.951687,175.130224 C421.268245,191.839905 424.725128,210.500716 422.921537,229.036454 C420.9969,244.354894 414.493338,258.73841 404.25938,270.310366 C393.981425,281.928136 380.4601,290.212405 365.432075,294.099147 C364.880978,294.274249 364.304831,294.22422 363.678584,294.349292 C362.125491,295.099727 360.5223,295.775118 358.894058,296.350451 L290.758399,313.035117 L240.85905,375.071057 C236.350072,380.749347 230.588601,385.301984 224.075634,388.428795 C225.252978,389.279288 226.204873,390.354911 227.507467,391.105346 C242.889908,400.019095 261.795882,400.350311 277.481966,391.980853 C292.311492,383.726071 331.339196,361.938449 393.613184,319.638943 L400.627148,314.88619 C433.893382,292.49822 491.207494,253.800801 500,209.450107 C493.826562,171.996746 479.148086,136.451933 457.089565,105.539908 C434.957308,74.5318399 406.045498,48.9628518 372.546239,30.7715926 C304.520578,-6.20865123 223.286149,-10.0609608 152.057245,20.3155351 C181.165199,27.4946942 209.346308,37.9257373 236.074524,51.4085483 L236.049474,51.4085483 Z" id="Path"></path>
            <path d="M84.4966741,377.2366 L84.4966741,215.866771 C84.5277853,200.489898 88.3921819,185.363526 95.7400783,171.856818 C103.123023,158.306924 113.751007,146.800476 126.671933,138.368267 C152.785372,123.191982 184.443183,120.932133 212.446614,132.24536 C216.844035,132.995104 221.116528,134.344643 225.139169,136.268985 L368.879846,207.644582 C370.928644,208.894155 372.902486,210.268685 374.776386,211.768172 C372.38009,196.808103 363.71838,183.580535 350.965355,175.405604 L213.296116,93.3336639 C169.82162,71.9159864 115.703367,55.2716769 82.2729786,65.918037 C55.3430431,90.1473719 34.0256754,119.964872 19.8096216,153.288166 C-8.88782076,220.60982 -6.29862789,297.188148 26.8804736,362.416667 C43.3114036,394.722278 66.5890198,423.054572 95.0904594,445.438283 C89.7331124,423.025983 86.1903815,400.218252 84.4966741,377.2366 L84.4966741,377.2366 Z" id="Path"></path>
            <path d="M427.16852,353.790148 L420.376401,358.373734 C356.525485,401.955368 316.27219,424.497592 303.062516,431.886433 C287.827581,440.538954 270.628,445.110695 253.120463,445.161298 C235.724728,445.157166 218.640132,440.53385 203.602917,431.761198 C189.546389,423.519358 177.848854,411.777646 169.64232,397.672345 C161.464478,383.595198 157.075859,367.627316 156.907096,351.335551 C156.39207,349.193836 156.033203,347.017349 155.833342,344.823352 L155.833342,177.960798 C155.833342,177.359672 156.058081,176.808639 156.083052,176.207513 C154.684675,176.708452 153.33624,177.284531 152.037746,177.960798 C139.52165,186.483277 132.132423,200.760421 132.385548,215.931922 L132.385548,375.656106 C134.118936,412.859234 143.585597,449.288246 160.178301,482.606438 C229.463193,509.784932 307.172021,504.92769 372.556884,469.331572 C404.77287,451.779481 432.750727,427.342027 454.511794,397.747486 C476.203079,368.235612 491.125207,334.280819 498.211091,298.311229 C476.279643,318.961401 452.498308,337.541224 427.16852,353.815195 L427.16852,353.790148 Z" id="Path"></path>
        </g>
    </g>
</svg>