<?xml version="1.0" encoding="UTF-8"?>
<svg width="500px" height="500px" viewBox="0 0 500 500" version="1.1" xmlns="http://www.w3.org/2000/svg" xmlns:xlink="http://www.w3.org/1999/xlink">
    <title>logos</title>
    <g id="Page-1" stroke="none" stroke-width="1" fill="none" fill-rule="evenodd">
        <g id="mobx" fill-rule="nonzero">
            <path d="M500,462.000042 L500,41.80637 C500,24.5673173 488.31678,10.0185957 472.311775,5.3667263 L454.135029,16.0543963 L252.415553,227.398515 L246.091663,246.822008 L242.397138,265.468251 L305.300713,496.472332 L315.03114,500 L461.326827,500 C482.685244,500 500,482.987726 500,462.000042" id="Path" fill="#000000"></path>
            <path d="M0,38.0525548 L0,458.806364 C0,471.819849 6.66435756,483.300052 16.8241875,490.161002 L29.2681483,484.319005 L243.521207,259.384659 L251.921425,243.343429 L252.236136,227.835936 L193.925481,10.2982177 L185.091793,0 L38.8064729,0 C17.3744374,0 0,17.0368931 0,38.0525548" id="Path" fill="#000000"></path>
            <path d="M249.884301,242.397138 L475.849732,1.56016153 C472.287119,0.524641343 468.590817,0 464.87518,0 L183.363148,0 L249.886271,242.397138 L249.884301,242.397138 Z" id="Path" fill="#000000"></path>
            <path d="M36.1544502,500 L316.636852,500 L247.901731,242.397138 L14.3112701,493.194109 C20.733051,497.636846 28.3527445,500.010974 36.1544502,500" id="Path" fill="#000000"></path>
            <path d="M185.477323,192.025521 L213.153385,192.025521 C224.181006,234.193305 236.732028,271.195111 250.734461,304.582704 C266.594937,267.020922 278.219855,229.991512 288.060665,192.02355 L314.213328,192.02355 C302.500858,239.199571 283.340657,286.74628 261.425496,335.823065 L238.292393,335.823065 C217.241076,289.317438 199.322163,241.5006 185.477323,192.02355 L185.477323,192.025521 Z M94.1900932,118.962433 L155.729204,118.962433 L155.729204,386.404293 L93.9177102,386.404293 L93.9177102,365.787706 L131.802299,365.787706 L131.802299,139.028903 L94.1900932,139.028903 L94.1900932,118.962433 L94.1900932,118.962433 Z M405.813798,139.028903 L368.201592,139.028903 L368.201592,365.787706 L406.08229,365.787706 L406.08229,386.404293 L344.272742,386.404293 L344.272742,118.962433 L405.811852,118.962433 L405.811852,139.028903 L405.813798,139.028903 Z" id="Shape" fill="#FFFFFF"></path>
        </g>
    </g>
</svg>