<?xml version="1.0" encoding="UTF-8"?>
<svg width="559px" height="500px" viewBox="0 0 559 500" version="1.1" xmlns="http://www.w3.org/2000/svg" xmlns:xlink="http://www.w3.org/1999/xlink">
    <title>logos</title>
    <g id="Page-1" stroke="none" stroke-width="1" fill="none" fill-rule="evenodd">
        <g id="React" fill="#000000" fill-rule="nonzero">
            <path d="M280,302 C308.71905,302 332,278.71905 332,250 C332,221.28095 308.71905,198 280,198 C251.28095,198 228,221.28095 228,250 C228,278.71905 251.28095,302 280,302 Z" id="Path"></path>
            <path d="M472.828936,165.922022 C463.005961,162.344202 452.736071,158.766381 442.020409,155.635073 C444.69961,144.901612 446.931897,134.16815 448.718412,123.882346 C458.094473,64.8479661 447.825726,23.2558326 419.250629,7.1556408 C410.767254,2.23610913 401.391193,0 390.675531,0 C359.421233,0 319.683559,23.2558326 279.500114,62.164658 C239.316669,23.2558326 199.578996,0 168.324697,0 C157.609036,0 148.232975,2.23610913 139.7496,7.1556408 C111.174503,23.7030315 100.905756,65.2952795 110.281817,123.882346 C112.068332,134.16815 114.300618,144.901612 116.978676,155.635073 C106.263015,158.766381 95.9942678,161.896545 86.1712923,165.922022 C30.361041,187.388944 0,216.905677 0,250.000229 C0,283.094781 30.8074983,312.612658 86.1712923,334.079581 C95.9942678,337.657401 106.263015,341.235222 116.978676,344.365385 C114.300618,355.098846 112.068332,365.832308 110.281817,376.118112 C100.905756,435.152721 111.174503,476.74474 139.7496,492.844359 C148.232975,497.764005 157.609036,500 168.324697,500 C200.02591,500 239.762441,476.74474 279.500114,437.836372 C319.683559,476.74474 359.421233,500 390.675531,500 C401.391193,500 410.767254,497.764005 419.250629,492.844359 C447.825726,476.297083 458.094473,434.705064 448.718412,376.118112 C446.931897,365.832308 444.69961,355.098846 442.020409,344.365385 C452.736071,341.235222 463.005961,338.103913 472.828936,334.079581 C528.639531,312.612658 559,283.094781 559,250.000229 C559,216.905677 528.639531,187.388944 472.828936,165.922022 Z M406.748452,29.5170755 C425.054802,40.2505367 431.304748,73.3453182 423.715202,120.304526 C422.375601,129.696161 420.143315,139.535454 417.464114,149.821258 C394.247418,144.4551 369.68998,140.877279 343.794083,138.64014 C328.613849,117.173217 312.986699,97.9434345 297.35955,80.5008445 C330.399221,47.8533765 363.885806,25.4920562 391.121303,25.4920562 C396.925477,25.4920562 402.283879,26.833653 406.748452,29.5170755 Z M356.742032,294.723556 C348.705571,309.034838 339.32951,323.34612 329.506535,337.657401 C312.986699,338.998082 296.466864,339.445739 279.500114,339.445739 C262.087593,339.445739 245.566615,338.998082 229.493694,337.657401 C219.670718,323.34612 210.741572,309.034838 202.703969,294.723556 C194.221737,279.964618 186.184133,264.759167 179.040359,250.000229 C186.184133,235.24129 194.221737,220.03584 202.703969,205.278046 C210.741572,190.966765 220.117633,176.655483 229.940608,162.344202 C246.460444,161.002376 262.980279,160.554719 279.947029,160.554719 C297.35955,160.554719 313.879385,161.002376 329.953449,162.344202 C339.775282,176.655483 348.705571,190.966765 356.742032,205.278046 C365.225407,220.03584 373.261867,235.24129 380.405641,250.000229 C372.816095,264.759167 365.225407,279.516961 356.742032,294.723556 Z M393.800504,279.964618 C400.497364,295.617725 405.855766,310.823176 410.767254,326.028626 C395.585876,329.606447 379.512955,332.290098 362.546205,334.526093 C367.904608,326.028626 373.708781,317.084648 378.620269,307.693012 C383.977528,298.301377 388.889016,288.908596 393.800504,279.964618 Z M279.500114,401.162855 C268.784453,389.535225 258.515706,377.013426 248.69273,364.042825 C258.961477,364.490482 269.231367,364.938139 279.500114,364.938139 C289.768861,364.938139 300.038751,364.490482 310.307498,364.042825 C300.484523,377.013426 290.215776,389.535225 279.500114,401.162855 Z M196.454023,334.079581 C179.487273,331.842441 163.41321,329.159935 148.232975,325.582114 C153.144463,310.823176 158.502865,295.170068 165.199725,279.516961 C170.111212,288.462084 175.0227,297.85372 180.379959,306.797698 C185.738362,316.636991 191.095621,325.134457 196.454023,334.079581 Z M165.199725,220.03584 C158.502865,204.382733 153.144463,189.177282 148.232975,173.971832 C163.41321,170.394011 179.487273,167.71036 196.454023,165.474365 C191.095621,173.971832 185.291447,182.91581 180.379959,192.307446 C175.0227,201.700226 170.111212,211.091861 165.199725,220.03584 Z M279.500114,98.8376034 C290.215776,110.465233 300.484523,122.988177 310.307498,135.957633 C300.038751,135.509976 289.768861,135.062319 279.500114,135.062319 C269.231367,135.062319 258.961477,135.509976 248.69273,135.957633 C258.515706,122.988177 268.784453,110.465233 279.500114,98.8376034 Z M378.620269,192.755103 L362.546205,165.922022 C379.512955,168.158017 395.585876,170.840523 410.767254,174.418344 C405.855766,189.177282 400.497364,204.83039 393.800504,220.483497 C388.889016,211.091861 383.977528,201.700226 378.620269,192.755103 Z M135.285027,120.304526 C127.694338,73.3453182 133.945426,40.2505367 152.251777,29.5170755 C156.71635,26.833653 162.074752,25.4920562 167.878926,25.4920562 C194.667508,25.4920562 228.154093,47.4061775 261.640678,80.5008445 C246.013529,97.4957776 230.38638,117.173217 215.206145,138.64014 C189.310249,140.877279 164.75281,144.901612 141.536115,149.821258 C138.856914,139.535454 137.071542,129.696161 135.285027,120.304526 Z M25.0030959,250.000229 C25.0030959,228.980963 50.4524206,206.618727 95.1015818,190.071451 C104.030728,186.493631 113.853704,183.363467 123.676679,180.679816 C130.820454,203.040907 139.7496,226.744969 150.465261,250.447886 C139.7496,274.150803 130.373539,297.406063 123.676679,319.768299 C62.0619111,301.879197 25.0030959,275.044972 25.0030959,250.000229 Z M152.251777,470.483268 C133.945426,459.749807 127.694338,426.655254 135.285027,379.695932 C136.624627,370.304297 138.856914,360.465004 141.536115,350.1792 C164.75281,355.546503 189.310249,359.124324 215.206145,361.360318 C230.38638,382.827241 246.013529,402.058168 261.640678,419.499613 C228.601008,452.147654 195.114423,474.508745 167.878926,474.508745 C162.074752,474.508745 156.71635,473.166919 152.251777,470.483268 Z M423.715202,379.695932 C431.304748,426.655254 425.054802,459.749807 406.748452,470.483268 C402.283879,473.166919 396.925477,474.508745 391.121303,474.508745 C364.33272,474.508745 330.846135,452.594166 297.35955,419.499613 C312.986699,402.50468 328.613849,382.827241 343.794083,361.360318 C369.68998,359.124324 394.247418,355.098846 417.464114,350.1792 C420.143315,360.465004 421.928687,370.304297 423.715202,379.695932 Z M463.898647,309.929007 C454.9695,313.506827 445.146525,316.636991 435.323549,319.320642 C428.179775,296.959551 419.250629,273.256634 408.534967,249.552572 C419.250629,225.849655 428.62669,202.594395 435.323549,180.233304 C496.938317,198.122406 533.99679,224.955486 533.99679,250.000229 C533.99679,271.019494 508.100894,293.381731 463.898647,309.929007 Z" id="Shape"></path>
        </g>
    </g>
</svg>