<?xml version="1.0" encoding="UTF-8"?>
<svg width="833px" height="500px" viewBox="0 0 833 500" version="1.1" xmlns="http://www.w3.org/2000/svg" xmlns:xlink="http://www.w3.org/1999/xlink">
    <title>logos</title>
    <g id="Page-1" stroke="none" stroke-width="1" fill="none" fill-rule="evenodd">
        <g id="Tailwind_CSS_Logo" fill="#000000">
            <path d="M416.368515,0 C305.336911,0 235.942159,55.5555556 208.184258,166.666667 C249.821109,111.111111 298.397436,90.2777778 353.913238,104.166667 C385.588087,112.083333 408.226198,135.092593 433.285414,160.540123 C474.104949,202.006173 521.355065,250 624.552773,250 C735.584377,250 804.979129,194.444444 832.73703,83.3333333 C791.100179,138.888889 742.523852,159.722222 687.00805,145.833333 C655.333201,137.916667 632.69509,114.907407 607.635874,89.4598765 C566.816339,47.9938272 519.566223,0 416.368515,0 Z M208.184258,250 C97.1526535,250 27.757901,305.555556 0,416.666667 C41.6368515,361.111111 90.2131783,340.277778 145.72898,354.166667 C177.40383,362.098765 200.04194,385.092593 225.101156,410.540123 C265.920692,452.006173 313.170808,500 416.368515,500 C527.400119,500 596.794872,444.444444 624.552773,333.333333 C582.915921,388.888889 534.339595,409.722222 478.823792,395.833333 C447.148943,387.916667 424.510833,364.907407 399.451617,339.459877 C358.632081,297.993827 311.381965,250 208.184258,250 Z" id="Shape"></path>
        </g>
    </g>
</svg>